<svg xmlns="http://www.w3.org/2000/svg" viewBox="0 0 40.5 40.5" >
        <!-- first row -->
        <rect
            x="0" 
            y="0" 
            width="9" 
            height="9" 
            fill="#ffffffff"
            rx="1"
        />
        <rect
            x="10.5" 
            y="0" 
            width="9" 
            height="9" 
            fill="#ffffff60" 
            rx="1"
        />
        <rect
            x="21" 
            y="0" 
            width="9" 
            height="9" 
            fill="#ffffff60"
            rx="1"
        />
        <rect
            x="31.5" 
            y="0" 
            width="9" 
            height="9" 
            fill="#ffffffff"
            rx="1"
        />
        <!-- second row -->
        <rect
            x="0" 
            y="10.5" 
            width="9" 
            height="9" 
            fill="#ffffff60"
            rx="1"
        />
        <rect
            x="10.5" 
            y="10.5" 
            width="9" 
            height="9" 
            fill="#ffffff60" 
            rx="1"
        />
        <rect
            x="21" 
            y="10.5" 
            width="9" 
            height="9" 
            fill="#ffffff60"
            rx="1"
        />
        <rect
            x="31.5" 
            y="10.5" 
            width="9" 
            height="9" 
            fill="#ffffff60"
            rx="1"
        />
        <!-- third row -->
        <rect
            x="0" 
            y="21" 
            width="9" 
            height="9" 
            fill="#ffffff60"
            rx="1"
        />
        <rect
            x="10.5" 
            y="21" 
            width="9" 
            height="9" 
            fill="#ffffff60" 
            rx="1"
        />
        <rect
            x="21" 
            y="21" 
            width="9" 
            height="9" 
            fill="#ffffff60"
            rx="1"
        />
        <rect
            x="31.5" 
            y="21" 
            width="9" 
            height="9" 
            fill="#ffffff60"
            rx="1"
        />
        <!-- fourth row -->
         <rect
            x="0" 
            y="31.5" 
            width="9" 
            height="9" 
            fill="#ffffffff"
            rx="1"
        />
        <rect
            x="10.5" 
            y="31.5" 
            width="9" 
            height="9" 
            fill="#ffffff60" 
            rx="1"
        />
        <rect
            x="21" 
            y="31.5" 
            width="9" 
            height="9" 
            fill="#ffffff60"
            rx="1"
        />
        <rect
            x="31.5" 
            y="31.5" 
            width="9" 
            height="9" 
            fill="#ffffffff"
            rx="1"
        />
</svg>