<svg xmlns="http://www.w3.org/2000/svg" viewBox="0 0 70 120" >
         <rect
            x="0" 
            y="0" 
            width="20" 
            height="20" 
            fill="#ffffffff"
            rx="3"
        />
        <rect
            x="25"
            y="0"
            width="20"
            height="20"
            fill="#ffffffff" 
            rx="3"
        />
   
        <rect
            x="50"
            y="0"
            width="20"
            height="20"
            fill="#ffffffff" 
            rx="3"
        />

        <rect
            x="0"
            y="25"
            width="20"
            height="20"
            fill="#ffffffff" 
            rx="3"
        />

        <rect
            x="25"
            y="25"
            width="20"
            height="20"
            fill="#ffffff60" 
            rx="3"
        />

        <rect
            x="50"
            y="25"
            width="20"
            height="20"
            fill="#ffffffff" 
            rx="3"
        />

        <rect
            x="0"
            y="50"
            width="20"
            height="20"
            fill="#ffffffff" 
            rx="3"
        />

        <rect
            x="25"
            y="50"
            width="20"
            height="20"
            fill="#ffffff60" 
            rx="3"
        />

        <rect
            x="50"
            y="50"
            width="20"
            height="20"
            fill="#ffffffff" 
            rx="3"
        />

        <rect
            x="0"
            y="75"
            width="20"
            height="20"
            fill="#ffffffff" 
            rx="3"
        />

        <rect
            x="25"
            y="75"
            width="20"
            height="20"
            fill="#ffffff60" 
            rx="3"
        />

        <rect
            x="50"
            y="75"
            width="20"
            height="20"
            fill="#ffffffff" 
            rx="3"
        />

        <rect
            x="0"
            y="100"
            width="20"
            height="20"
            fill="#ffffffff" 
            rx="3"
        />

        <rect
            x="25"
            y="100"
            width="20"
            height="20"
            fill="#ffffffff" 
            rx="3"
        />

        <rect
            x="50"
            y="100"
            width="20"
            height="20"
            fill="#ffffffff" 
            rx="3"
        />
</svg>